<svg width="72" height="72" viewBox="0 0 72 72" fill="none" xmlns="http://www.w3.org/2000/svg">
<path d="M0 36C0 16.1177 16.1177 0 36 0V0C55.8823 0 72 16.1177 72 36V36C72 55.8823 55.8823 72 36 72V72C16.1177 72 0 55.8823 0 36V36Z" fill="#96BB7C"/>
<g clip-path="url(#clip0_2636_371)">
<g clip-path="url(#clip1_2636_371)">
<path d="M30.2754 43.6057H39.7247V48.3304H30.2754V43.6057Z" fill="white"/>
<path d="M34.9997 25.6521C29.2683 25.6521 24.6055 30.315 24.6055 36.0464V50.2203C24.6055 52.3045 26.3011 54.0001 28.3852 54.0001H41.6142C43.6984 54.0001 45.394 52.3045 45.394 50.2203V36.0464C45.394 30.315 40.7312 25.6521 34.9997 25.6521V25.6521ZM29.3301 34.1565H40.6693V36.0464H38.7795V37.9362H36.8896V36.0464H29.3301V34.1565ZM41.6142 50.2203H28.3852V41.7159H41.6142V50.2203Z" fill="white"/>
<path d="M44.7042 23.8388L39.3411 22L38.5566 24.288C40.4519 24.8625 42.1545 25.8834 43.5422 27.228L44.7042 23.8388Z" fill="white"/>
<path d="M31.4425 24.288L30.658 22L25.2949 23.8388L26.4569 27.228C27.8446 25.8834 29.5473 24.8625 31.4425 24.288V24.288Z" fill="white"/>
</g>
</g>
<defs>
<clipPath id="clip0_2636_371">
<rect width="32" height="32" fill="white" transform="translate(19 22)"/>
</clipPath>
<clipPath id="clip1_2636_371">
<rect width="20.7885" height="32" fill="white" transform="translate(24.6055 22)"/>
</clipPath>
</defs>
</svg>
