<svg width="131" height="23" viewBox="0 0 131 23" fill="none" xmlns="http://www.w3.org/2000/svg">
<g clip-path="url(#clip0_2636_560)">
<path d="M20.5969 8.41915C20.5392 8.24934 20.4331 8.10013 20.2916 7.98994C20.1501 7.87975 19.9795 7.81341 19.8007 7.7991L14.5716 7.38359L12.3087 2.37458C12.2367 2.21324 12.1195 2.07622 11.9712 1.98003C11.823 1.88385 11.6501 1.83262 11.4734 1.83252C11.2968 1.83242 11.1238 1.88347 10.9755 1.97949C10.8272 2.07551 10.7098 2.21241 10.6375 2.37366L8.37473 7.38359L3.14558 7.7991C2.96989 7.81302 2.80193 7.87726 2.66179 7.98413C2.52165 8.09101 2.41527 8.236 2.35537 8.40175C2.29548 8.5675 2.2846 8.747 2.32405 8.91877C2.3635 9.09054 2.4516 9.24731 2.57781 9.37032L6.44212 13.1374L5.07544 19.0554C5.03394 19.2345 5.04724 19.422 5.11361 19.5935C5.17999 19.765 5.29637 19.9125 5.44765 20.0171C5.59894 20.1216 5.77815 20.1782 5.96202 20.1796C6.1459 20.181 6.32595 20.1271 6.47881 20.0249L11.4731 16.6954L16.4675 20.0249C16.6237 20.1286 16.808 20.182 16.9955 20.1779C17.183 20.1738 17.3647 20.1124 17.5162 20.0019C17.6678 19.8914 17.7819 19.7372 17.8431 19.5599C17.9044 19.3827 17.9099 19.1909 17.8589 19.0105L16.1813 13.1402L20.3419 9.396C20.6143 9.15018 20.7143 8.76678 20.5969 8.41915V8.41915Z" fill="#F3CD03"/>
<path d="M47.6115 8.41915C47.5539 8.24934 47.4478 8.10013 47.3063 7.98994C47.1648 7.87975 46.9941 7.81341 46.8154 7.7991L41.5862 7.38359L39.3234 2.37458C39.2513 2.21324 39.1341 2.07622 38.9859 1.98003C38.8377 1.88385 38.6648 1.83262 38.4881 1.83252C38.3114 1.83242 38.1385 1.88347 37.9901 1.97949C37.8418 2.07551 37.7244 2.21241 37.6522 2.37366L35.3894 7.38359L30.1602 7.7991C29.9845 7.81302 29.8166 7.87726 29.6764 7.98413C29.5363 8.09101 29.4299 8.236 29.37 8.40175C29.3101 8.5675 29.2993 8.747 29.3387 8.91877C29.3781 9.09054 29.4662 9.24731 29.5925 9.37032L33.4568 13.1374L32.0901 19.0554C32.0486 19.2345 32.0619 19.422 32.1283 19.5935C32.1946 19.765 32.311 19.9125 32.4623 20.0171C32.6136 20.1216 32.7928 20.1782 32.9767 20.1796C33.1605 20.181 33.3406 20.1271 33.4935 20.0249L38.4878 16.6954L43.4821 20.0249C43.6384 20.1286 43.8226 20.182 44.0101 20.1779C44.1976 20.1738 44.3794 20.1124 44.5309 20.0019C44.6824 19.8914 44.7965 19.7372 44.8578 19.5599C44.919 19.3827 44.9246 19.1909 44.8736 19.0105L43.196 13.1402L47.3565 9.396C47.629 9.15018 47.7289 8.76678 47.6115 8.41915V8.41915Z" fill="#F3CD03"/>
<path d="M74.6223 8.41915C74.5646 8.24934 74.4585 8.10013 74.317 7.98994C74.1755 7.87975 74.0049 7.81341 73.8261 7.7991L68.597 7.38359L66.3341 2.37458C66.2621 2.21324 66.1449 2.07622 65.9966 1.98003C65.8484 1.88385 65.6755 1.83262 65.4988 1.83252C65.3221 1.83242 65.1492 1.88347 65.0009 1.97949C64.8525 2.07551 64.7352 2.21241 64.6629 2.37366L62.4001 7.38359L57.171 7.7991C56.9953 7.81302 56.8273 7.87726 56.6872 7.98413C56.547 8.09101 56.4407 8.236 56.3808 8.40175C56.3209 8.5675 56.31 8.747 56.3494 8.91877C56.3889 9.09054 56.477 9.24731 56.6032 9.37032L60.4675 13.1374L59.1008 19.0554C59.0593 19.2345 59.0726 19.422 59.139 19.5935C59.2054 19.765 59.3218 19.9125 59.473 20.0171C59.6243 20.1216 59.8035 20.1782 59.9874 20.1796C60.1713 20.181 60.3513 20.1271 60.5042 20.0249L65.4985 16.6954L70.4929 20.0249C70.6491 20.1286 70.8334 20.182 71.0209 20.1779C71.2084 20.1738 71.3901 20.1124 71.5416 20.0019C71.6932 19.8914 71.8073 19.7372 71.8685 19.5599C71.9298 19.3827 71.9353 19.1909 71.8843 19.0105L70.2067 13.1402L74.3673 9.396C74.6397 9.15018 74.7397 8.76678 74.6223 8.41915V8.41915Z" fill="#F3CD03"/>
<path d="M101.637 8.41915C101.579 8.24934 101.473 8.10013 101.332 7.98994C101.19 7.87975 101.02 7.81341 100.841 7.7991L95.6116 7.38359L93.3488 2.37458C93.2767 2.21324 93.1595 2.07622 93.0113 1.98003C92.8631 1.88385 92.6902 1.83262 92.5135 1.83252C92.3368 1.83242 92.1638 1.88347 92.0155 1.97949C91.8672 2.07551 91.7498 2.21241 91.6776 2.37366L89.4148 7.38359L84.1856 7.7991C84.0099 7.81302 83.842 7.87726 83.7018 7.98413C83.5617 8.09101 83.4553 8.236 83.3954 8.40175C83.3355 8.5675 83.3246 8.747 83.3641 8.91877C83.4035 9.09054 83.4916 9.24731 83.6178 9.37032L87.4822 13.1374L86.1155 19.0554C86.074 19.2345 86.0873 19.422 86.1537 19.5935C86.22 19.765 86.3364 19.9125 86.4877 20.0171C86.639 20.1216 86.8182 20.1782 87.0021 20.1796C87.1859 20.181 87.366 20.1271 87.5188 20.0249L92.5132 16.6954L97.5075 20.0249C97.6638 20.1286 97.848 20.182 98.0355 20.1779C98.223 20.1738 98.4047 20.1124 98.5563 20.0019C98.7078 19.8914 98.8219 19.7372 98.8832 19.5599C98.9444 19.3827 98.9499 19.1909 98.899 19.0105L97.2213 13.1402L101.382 9.396C101.654 9.15018 101.754 8.76678 101.637 8.41915V8.41915Z" fill="#F3CD03"/>
<path d="M114.498 13.1374L113.131 19.0554C113.089 19.2346 113.101 19.4224 113.167 19.5943C113.234 19.7662 113.35 19.9141 113.501 20.0188C113.653 20.1235 113.832 20.1801 114.016 20.1812C114.201 20.1823 114.381 20.1278 114.533 20.0249L119.528 16.6954L124.522 20.0249C124.678 20.1287 124.863 20.1821 125.05 20.178C125.238 20.1739 125.419 20.1124 125.571 20.0019C125.722 19.8915 125.837 19.7372 125.898 19.56C125.959 19.3827 125.965 19.191 125.914 19.0105L124.236 13.1402L128.397 9.39603C128.53 9.27605 128.625 9.11963 128.67 8.94614C128.716 8.77264 128.709 8.58967 128.651 8.41986C128.594 8.25004 128.488 8.10083 128.346 7.99067C128.205 7.88051 128.034 7.81423 127.855 7.80004L122.626 7.38362L120.363 2.3746C120.291 2.21331 120.174 2.07635 120.026 1.98025C119.877 1.88415 119.705 1.83301 119.528 1.83301C119.351 1.83301 119.178 1.88415 119.03 1.98025C118.882 2.07635 118.764 2.21331 118.692 2.3746L116.429 7.38362L111.2 7.79913C111.025 7.81305 110.857 7.87729 110.716 7.98416C110.576 8.09104 110.47 8.23602 110.41 8.40178C110.35 8.56753 110.339 8.74703 110.379 8.9188C110.418 9.09057 110.506 9.24734 110.632 9.37035L114.498 13.1374V13.1374ZM117.115 9.16947C117.278 9.15658 117.436 9.09987 117.57 9.0053C117.704 8.91073 117.81 8.78179 117.878 8.63198L119.528 4.98047L121.178 8.63198C121.245 8.78179 121.352 8.91073 121.486 9.0053C121.62 9.09987 121.777 9.15658 121.941 9.16947L125.584 9.4584L122.584 12.1587C122.324 12.3936 122.22 12.7549 122.315 13.0925L123.465 17.1146L120.038 14.8297C119.887 14.7288 119.71 14.6749 119.529 14.6749C119.348 14.6749 119.171 14.7288 119.021 14.8297L115.44 17.2173L116.403 13.0475C116.438 12.8942 116.433 12.7343 116.389 12.5833C116.345 12.4323 116.262 12.2953 116.15 12.1853L113.363 9.46849L117.115 9.16947V9.16947Z" fill="#F3CD03"/>
</g>
<defs>
<clipPath id="clip0_2636_560">
<rect width="130.068" height="22.0136" fill="white" transform="translate(0.46582)"/>
</clipPath>
</defs>
</svg>
